<svg width="1200" height="320" viewBox="0 0 1200 320" fill="none" xmlns="http://www.w3.org/2000/svg">
  <rect width="1200" height="320" rx="28" fill="#0f1419"/>
  <path d="M0 244C148 196 249 194 377 228C515 264 612 262 745 215C900 160 1024 160 1200 210V320H0V244Z" fill="#172028"/>
  <path d="M0 254C144 206 250 204 379 237C517 273 613 270 746 224C902 171 1024 171 1200 222" stroke="#76b900" stroke-width="4" opacity="0.8"/>
  <path d="M80 210H190L218 164L248 236L288 126L326 210H460" stroke="#76b900" stroke-width="9" stroke-linejoin="round" opacity="0.95"/>
  <path d="M740 88H1052" stroke="#26333d" stroke-width="1"/>
  <path d="M740 130H1110" stroke="#26333d" stroke-width="1"/>
  <path d="M740 172H1015" stroke="#26333d" stroke-width="1"/>
  <g transform="translate(86 72)">
    <text x="0" y="58" fill="#f7fafc" font-size="70" font-family="Inter, ui-sans-serif, system-ui, -apple-system, BlinkMacSystemFont, Segoe UI, sans-serif" font-weight="760">gpu-holder</text>
    <text x="2" y="105" fill="#b7c3cc" font-size="26" font-family="Inter, ui-sans-serif, system-ui, -apple-system, BlinkMacSystemFont, Segoe UI, sans-serif">GPU guard for shared NVIDIA training machines</text>
    <g transform="translate(0 148)">
      <rect x="0" y="0" width="190" height="40" rx="20" fill="#1c2730" stroke="#2f3c46"/>
      <circle cx="25" cy="20" r="6" fill="#76b900"/>
      <text x="44" y="26" fill="#e8f0f2" font-size="15" font-family="Inter, ui-sans-serif, system-ui">read-only signals</text>
      <rect x="212" y="0" width="172" height="40" rx="20" fill="#1c2730" stroke="#2f3c46"/>
      <circle cx="237" cy="20" r="6" fill="#76b900"/>
      <text x="256" y="26" fill="#e8f0f2" font-size="15" font-family="Inter, ui-sans-serif, system-ui">Driver API path</text>
      <rect x="406" y="0" width="178" height="40" rx="20" fill="#1c2730" stroke="#2f3c46"/>
      <circle cx="431" cy="20" r="6" fill="#76b900"/>
      <text x="450" y="26" fill="#e8f0f2" font-size="15" font-family="Inter, ui-sans-serif, system-ui">PyTorch fallback</text>
    </g>
  </g>
</svg>
